<?xml version="1.0" encoding="UTF-8" standalone="no"?>
<!-- Created with Inkscape (http://www.inkscape.org/) -->

<svg
   xmlns:dc="http://purl.org/dc/elements/1.1/"
   xmlns:cc="http://creativecommons.org/ns#"
   xmlns:rdf="http://www.w3.org/1999/02/22-rdf-syntax-ns#"
   xmlns:svg="http://www.w3.org/2000/svg"
   xmlns="http://www.w3.org/2000/svg"
   xmlns:sodipodi="http://sodipodi.sourceforge.net/DTD/sodipodi-0.dtd"
   xmlns:inkscape="http://www.inkscape.org/namespaces/inkscape"
   id="svg2"
   version="1.1"
   inkscape:version="0.48.1 r9760"
   width="560"
   height="421.25"
   xml:space="preserve"
   sodipodi:docname="ad-plot-3.eps"><metadata
     id="metadata8"><rdf:RDF><cc:Work
         rdf:about=""><dc:format>image/svg+xml</dc:format><dc:type
           rdf:resource="http://purl.org/dc/dcmitype/StillImage" /><dc:title></dc:title></cc:Work></rdf:RDF></metadata><defs
     id="defs6"><clipPath
       clipPathUnits="userSpaceOnUse"
       id="clipPath18"><path
         d="m 0,3370 4480,0 0,-3361.66797 -4480,0 L 0,3370 z"
         id="path20" /></clipPath><clipPath
       clipPathUnits="userSpaceOnUse"
       id="clipPath216"><path
         d="m 582.5,3117.5 3472.5,0 0,-2740 -3472.5,0 0,2740 z"
         id="path218" /></clipPath><clipPath
       clipPathUnits="userSpaceOnUse"
       id="clipPath226"><path
         d="m 0,3370 4480,0 0,-3361.66797 -4480,0 L 0,3370 z"
         id="path228" /></clipPath></defs><sodipodi:namedview
     pagecolor="#ffffff"
     bordercolor="#666666"
     borderopacity="1"
     objecttolerance="10"
     gridtolerance="10"
     guidetolerance="10"
     inkscape:pageopacity="0"
     inkscape:pageshadow="2"
     inkscape:window-width="1680"
     inkscape:window-height="1001"
     id="namedview4"
     showgrid="false"
     showguides="true"
     inkscape:guide-bbox="true"
     inkscape:zoom="3.3974697"
     inkscape:cx="377.56749"
     inkscape:cy="281.62113"
     inkscape:window-x="0"
     inkscape:window-y="0"
     inkscape:window-maximized="1"
     inkscape:current-layer="g10"><sodipodi:guide
       orientation="1,0"
       position="159.23615,191.02451"
       id="guide4007" /><sodipodi:guide
       orientation="1,0"
       position="235.46935,178.36804"
       id="guide4009" /><sodipodi:guide
       orientation="1,0"
       position="376.16229,247.24282"
       id="guide4011" /><sodipodi:guide
       orientation="1,0"
       position="398.23754,254.01256"
       id="guide4013" /><sodipodi:guide
       orientation="1,0"
       position="462.99162,241.94476"
       id="guide4015" /></sodipodi:namedview><g
     id="g10"
     inkscape:groupmode="layer"
     inkscape:label="ink_ext_XXXXXX"
     transform="matrix(1.25,0,0,-1.25,0,421.25)"><g
       id="g12"
       transform="scale(0.1,0.1)"><g
         id="g14"><g
           id="g16"
           clip-path="url(#clipPath18)"><path
             d="m 0,8.33203 4480,0 0,3361.66997 -4480,0 L 0,8.33203 z"
             style="fill:#ffffff;fill-opacity:1;fill-rule:nonzero;stroke:none"
             id="path22"
             inkscape:connector-curvature="0" /><path
             d="m 582.5,378.332 3471.67,0 0,2740 -3471.67,0 0,-2740 z"
             style="fill:#ffffff;fill-opacity:1;fill-rule:evenodd;stroke:none"
             id="path24"
             inkscape:connector-curvature="0" /><path
             d="m 582.5,378.332 0,2739.998 3471.67,0 0,-2739.998 -3471.67,0"
             style="fill:none;stroke:#ffffff;stroke-width:5;stroke-linecap:butt;stroke-linejoin:round;stroke-miterlimit:10;stroke-opacity:1;stroke-dasharray:none"
             id="path26"
             inkscape:connector-curvature="0" /><path
             d="m 582.5,378.332 3471.67,0"
             style="fill:none;stroke:#000000;stroke-width:5;stroke-linecap:butt;stroke-linejoin:round;stroke-miterlimit:10;stroke-opacity:1;stroke-dasharray:none"
             id="path28"
             inkscape:connector-curvature="0" /><path
             d="m 582.5,3118.33 3471.67,0"
             style="fill:none;stroke:#000000;stroke-width:5;stroke-linecap:butt;stroke-linejoin:round;stroke-miterlimit:10;stroke-opacity:1;stroke-dasharray:none"
             id="path30"
             inkscape:connector-curvature="0" /><path
             d="m 582.5,378.332 0,2739.998"
             style="fill:none;stroke:#000000;stroke-width:5;stroke-linecap:butt;stroke-linejoin:round;stroke-miterlimit:10;stroke-opacity:1;stroke-dasharray:none"
             id="path32"
             inkscape:connector-curvature="0" /><path
             d="m 4054.17,378.332 0,2739.998"
             style="fill:none;stroke:#000000;stroke-width:5;stroke-linecap:butt;stroke-linejoin:round;stroke-miterlimit:10;stroke-opacity:1;stroke-dasharray:none"
             id="path34"
             inkscape:connector-curvature="0" /><path
             d="m 582.5,378.332 3471.67,0"
             style="fill:none;stroke:#000000;stroke-width:5;stroke-linecap:butt;stroke-linejoin:round;stroke-miterlimit:10;stroke-opacity:1;stroke-dasharray:none"
             id="path36"
             inkscape:connector-curvature="0" /><path
             d="m 582.5,378.332 0,2739.998"
             style="fill:none;stroke:#000000;stroke-width:5;stroke-linecap:butt;stroke-linejoin:round;stroke-miterlimit:10;stroke-opacity:1;stroke-dasharray:none"
             id="path38"
             inkscape:connector-curvature="0" /><path
             d="m 582.5,378.332 0,35"
             style="fill:none;stroke:#000000;stroke-width:5;stroke-linecap:butt;stroke-linejoin:round;stroke-miterlimit:10;stroke-opacity:1;stroke-dasharray:none"
             id="path40"
             inkscape:connector-curvature="0" /><path
             d="m 582.5,3117.5 0,-34.17"
             style="fill:none;stroke:#000000;stroke-width:5;stroke-linecap:butt;stroke-linejoin:round;stroke-miterlimit:10;stroke-opacity:1;stroke-dasharray:none"
             id="path42"
             inkscape:connector-curvature="0" /><g
             id="g44"
             transform="scale(10,10)"><text
               transform="matrix(1,0,0,-1,52.75,25.75)"
               id="text46"><tspan
                 style="font-size:10px;font-variant:normal;font-weight:normal;writing-mode:lr-tb;fill:#000000;fill-opacity:1;fill-rule:nonzero;stroke:none;font-family:Helvetica;-inkscape-font-specification:Helvetica"
                 x="0 5.5599999"
                 y="0"
                 sodipodi:role="line"
                 id="tspan48">15</tspan></text>
</g><path
             d="m 1015.83,378.332 0,35"
             style="fill:none;stroke:#000000;stroke-width:5;stroke-linecap:butt;stroke-linejoin:round;stroke-miterlimit:10;stroke-opacity:1;stroke-dasharray:none"
             id="path50"
             inkscape:connector-curvature="0" /><path
             d="m 1015.83,3117.5 0,-34.17"
             style="fill:none;stroke:#000000;stroke-width:5;stroke-linecap:butt;stroke-linejoin:round;stroke-miterlimit:10;stroke-opacity:1;stroke-dasharray:none"
             id="path52"
             inkscape:connector-curvature="0" /><g
             id="g54"
             transform="scale(10,10)"><text
               transform="matrix(1,0,0,-1,96.0832,25.75)"
               id="text56"><tspan
                 style="font-size:10px;font-variant:normal;font-weight:normal;writing-mode:lr-tb;fill:#000000;fill-opacity:1;fill-rule:nonzero;stroke:none;font-family:Helvetica;-inkscape-font-specification:Helvetica"
                 x="0 5.5599999"
                 y="0"
                 sodipodi:role="line"
                 id="tspan58">20</tspan></text>
</g><path
             d="m 1450,378.332 0,35"
             style="fill:none;stroke:#000000;stroke-width:5;stroke-linecap:butt;stroke-linejoin:round;stroke-miterlimit:10;stroke-opacity:1;stroke-dasharray:none"
             id="path60"
             inkscape:connector-curvature="0" /><path
             d="m 1450,3117.5 0,-34.17"
             style="fill:none;stroke:#000000;stroke-width:5;stroke-linecap:butt;stroke-linejoin:round;stroke-miterlimit:10;stroke-opacity:1;stroke-dasharray:none"
             id="path62"
             inkscape:connector-curvature="0" /><g
             id="g64"
             transform="scale(10,10)"><text
               transform="matrix(1,0,0,-1,139.5,25.75)"
               id="text66"><tspan
                 style="font-size:10px;font-variant:normal;font-weight:normal;writing-mode:lr-tb;fill:#000000;fill-opacity:1;fill-rule:nonzero;stroke:none;font-family:Helvetica;-inkscape-font-specification:Helvetica"
                 x="0 5.5599999"
                 y="0"
                 sodipodi:role="line"
                 id="tspan68">25</tspan></text>
</g><path
             d="m 1884.17,378.332 0,35"
             style="fill:none;stroke:#000000;stroke-width:5;stroke-linecap:butt;stroke-linejoin:round;stroke-miterlimit:10;stroke-opacity:1;stroke-dasharray:none"
             id="path70"
             inkscape:connector-curvature="0" /><path
             d="m 1884.17,3117.5 0,-34.17"
             style="fill:none;stroke:#000000;stroke-width:5;stroke-linecap:butt;stroke-linejoin:round;stroke-miterlimit:10;stroke-opacity:1;stroke-dasharray:none"
             id="path72"
             inkscape:connector-curvature="0" /><g
             id="g74"
             transform="scale(10,10)"><text
               transform="matrix(1,0,0,-1,182.917,25.75)"
               id="text76"><tspan
                 style="font-size:10px;font-variant:normal;font-weight:normal;writing-mode:lr-tb;fill:#000000;fill-opacity:1;fill-rule:nonzero;stroke:none;font-family:Helvetica;-inkscape-font-specification:Helvetica"
                 x="0 5.5599999"
                 y="0"
                 sodipodi:role="line"
                 id="tspan78">30</tspan></text>
</g><path
             d="m 2318.33,378.332 0,35"
             style="fill:none;stroke:#000000;stroke-width:5;stroke-linecap:butt;stroke-linejoin:round;stroke-miterlimit:10;stroke-opacity:1;stroke-dasharray:none"
             id="path80"
             inkscape:connector-curvature="0" /><path
             d="m 2318.33,3117.5 0,-34.17"
             style="fill:none;stroke:#000000;stroke-width:5;stroke-linecap:butt;stroke-linejoin:round;stroke-miterlimit:10;stroke-opacity:1;stroke-dasharray:none"
             id="path82"
             inkscape:connector-curvature="0" /><g
             id="g84"
             transform="scale(10,10)"><text
               transform="matrix(1,0,0,-1,226.333,25.75)"
               id="text86"><tspan
                 style="font-size:10px;font-variant:normal;font-weight:normal;writing-mode:lr-tb;fill:#000000;fill-opacity:1;fill-rule:nonzero;stroke:none;font-family:Helvetica;-inkscape-font-specification:Helvetica"
                 x="0 5.5599999"
                 y="0"
                 sodipodi:role="line"
                 id="tspan88">35</tspan></text>
</g><path
             d="m 2751.67,378.332 0,35"
             style="fill:none;stroke:#000000;stroke-width:5;stroke-linecap:butt;stroke-linejoin:round;stroke-miterlimit:10;stroke-opacity:1;stroke-dasharray:none"
             id="path90"
             inkscape:connector-curvature="0" /><path
             d="m 2751.67,3117.5 0,-34.17"
             style="fill:none;stroke:#000000;stroke-width:5;stroke-linecap:butt;stroke-linejoin:round;stroke-miterlimit:10;stroke-opacity:1;stroke-dasharray:none"
             id="path92"
             inkscape:connector-curvature="0" /><g
             id="g94"
             transform="scale(10,10)"><text
               transform="matrix(1,0,0,-1,269.667,25.75)"
               id="text96"><tspan
                 style="font-size:10px;font-variant:normal;font-weight:normal;writing-mode:lr-tb;fill:#000000;fill-opacity:1;fill-rule:nonzero;stroke:none;font-family:Helvetica;-inkscape-font-specification:Helvetica"
                 x="0 5.5599999"
                 y="0"
                 sodipodi:role="line"
                 id="tspan98">40</tspan></text>
</g><path
             d="m 3185.83,378.332 0,35"
             style="fill:none;stroke:#000000;stroke-width:5;stroke-linecap:butt;stroke-linejoin:round;stroke-miterlimit:10;stroke-opacity:1;stroke-dasharray:none"
             id="path100"
             inkscape:connector-curvature="0" /><path
             d="m 3185.83,3117.5 0,-34.17"
             style="fill:none;stroke:#000000;stroke-width:5;stroke-linecap:butt;stroke-linejoin:round;stroke-miterlimit:10;stroke-opacity:1;stroke-dasharray:none"
             id="path102"
             inkscape:connector-curvature="0" /><g
             id="g104"
             transform="scale(10,10)"><text
               transform="matrix(1,0,0,-1,313.083,25.75)"
               id="text106"><tspan
                 style="font-size:10px;font-variant:normal;font-weight:normal;writing-mode:lr-tb;fill:#000000;fill-opacity:1;fill-rule:nonzero;stroke:none;font-family:Helvetica;-inkscape-font-specification:Helvetica"
                 x="0 5.5599999"
                 y="0"
                 sodipodi:role="line"
                 id="tspan108">45</tspan></text>
</g><path
             d="m 3620,378.332 0,35"
             style="fill:none;stroke:#000000;stroke-width:5;stroke-linecap:butt;stroke-linejoin:round;stroke-miterlimit:10;stroke-opacity:1;stroke-dasharray:none"
             id="path110"
             inkscape:connector-curvature="0" /><path
             d="m 3620,3117.5 0,-34.17"
             style="fill:none;stroke:#000000;stroke-width:5;stroke-linecap:butt;stroke-linejoin:round;stroke-miterlimit:10;stroke-opacity:1;stroke-dasharray:none"
             id="path112"
             inkscape:connector-curvature="0" /><g
             id="g114"
             transform="scale(10,10)"><text
               transform="matrix(1,0,0,-1,356.5,25.75)"
               id="text116"><tspan
                 style="font-size:10px;font-variant:normal;font-weight:normal;writing-mode:lr-tb;fill:#000000;fill-opacity:1;fill-rule:nonzero;stroke:none;font-family:Helvetica;-inkscape-font-specification:Helvetica"
                 x="0 5.5599999"
                 y="0"
                 sodipodi:role="line"
                 id="tspan118">50</tspan></text>
</g><path
             d="m 4054.17,378.332 0,35"
             style="fill:none;stroke:#000000;stroke-width:5;stroke-linecap:butt;stroke-linejoin:round;stroke-miterlimit:10;stroke-opacity:1;stroke-dasharray:none"
             id="path120"
             inkscape:connector-curvature="0" /><path
             d="m 4054.17,3117.5 0,-34.17"
             style="fill:none;stroke:#000000;stroke-width:5;stroke-linecap:butt;stroke-linejoin:round;stroke-miterlimit:10;stroke-opacity:1;stroke-dasharray:none"
             id="path122"
             inkscape:connector-curvature="0" /><g
             id="g124"
             transform="scale(10,10)"><text
               transform="matrix(1,0,0,-1,399.917,25.75)"
               id="text126"><tspan
                 style="font-size:10px;font-variant:normal;font-weight:normal;writing-mode:lr-tb;fill:#000000;fill-opacity:1;fill-rule:nonzero;stroke:none;font-family:Helvetica;-inkscape-font-specification:Helvetica"
                 x="0 5.5599999"
                 y="0"
                 sodipodi:role="line"
                 id="tspan128">55</tspan></text>
</g><path
             d="m 582.5,378.332 34.168,0"
             style="fill:none;stroke:#000000;stroke-width:5;stroke-linecap:butt;stroke-linejoin:round;stroke-miterlimit:10;stroke-opacity:1;stroke-dasharray:none"
             id="path130"
             inkscape:connector-curvature="0" /><path
             d="m 4054.17,378.332 -35,0"
             style="fill:none;stroke:#000000;stroke-width:5;stroke-linecap:butt;stroke-linejoin:round;stroke-miterlimit:10;stroke-opacity:1;stroke-dasharray:none"
             id="path132"
             inkscape:connector-curvature="0" /><g
             id="g134"
             transform="scale(10,10)"><text
               transform="matrix(1,0,0,-1,49.8332,34.1668)"
               id="text136"><tspan
                 style="font-size:10px;font-variant:normal;font-weight:normal;writing-mode:lr-tb;fill:#000000;fill-opacity:1;fill-rule:nonzero;stroke:none;font-family:Helvetica;-inkscape-font-specification:Helvetica"
                 x="0"
                 y="0"
                 id="tspan138">1</tspan></text>
</g><path
             d="m 582.5,926.668 34.168,0"
             style="fill:none;stroke:#000000;stroke-width:5;stroke-linecap:butt;stroke-linejoin:round;stroke-miterlimit:10;stroke-opacity:1;stroke-dasharray:none"
             id="path140"
             inkscape:connector-curvature="0" /><path
             d="m 4054.17,926.668 -35,0"
             style="fill:none;stroke:#000000;stroke-width:5;stroke-linecap:butt;stroke-linejoin:round;stroke-miterlimit:10;stroke-opacity:1;stroke-dasharray:none"
             id="path142"
             inkscape:connector-curvature="0" /><g
             id="g144"
             transform="scale(10,10)"><text
               transform="matrix(1,0,0,-1,41.5,89)"
               id="text146"><tspan
                 style="font-size:10px;font-variant:normal;font-weight:normal;writing-mode:lr-tb;fill:#000000;fill-opacity:1;fill-rule:nonzero;stroke:none;font-family:Helvetica;-inkscape-font-specification:Helvetica"
                 x="0 5.5599999 8.3400002"
                 y="0"
                 sodipodi:role="line"
                 id="tspan148">1.5</tspan></text>
</g><path
             d="m 582.5,1474.17 34.168,0"
             style="fill:none;stroke:#000000;stroke-width:5;stroke-linecap:butt;stroke-linejoin:round;stroke-miterlimit:10;stroke-opacity:1;stroke-dasharray:none"
             id="path150"
             inkscape:connector-curvature="0" /><path
             d="m 4054.17,1474.17 -35,0"
             style="fill:none;stroke:#000000;stroke-width:5;stroke-linecap:butt;stroke-linejoin:round;stroke-miterlimit:10;stroke-opacity:1;stroke-dasharray:none"
             id="path152"
             inkscape:connector-curvature="0" /><g
             id="g154"
             transform="scale(10,10)"><text
               transform="matrix(1,0,0,-1,49.8332,143.75)"
               id="text156"><tspan
                 style="font-size:10px;font-variant:normal;font-weight:normal;writing-mode:lr-tb;fill:#000000;fill-opacity:1;fill-rule:nonzero;stroke:none;font-family:Helvetica;-inkscape-font-specification:Helvetica"
                 x="0"
                 y="0"
                 id="tspan158">2</tspan></text>
</g><path
             d="m 582.5,2022.5 34.168,0"
             style="fill:none;stroke:#000000;stroke-width:5;stroke-linecap:butt;stroke-linejoin:round;stroke-miterlimit:10;stroke-opacity:1;stroke-dasharray:none"
             id="path160"
             inkscape:connector-curvature="0" /><path
             d="m 4054.17,2022.5 -35,0"
             style="fill:none;stroke:#000000;stroke-width:5;stroke-linecap:butt;stroke-linejoin:round;stroke-miterlimit:10;stroke-opacity:1;stroke-dasharray:none"
             id="path162"
             inkscape:connector-curvature="0" /><g
             id="g164"
             transform="scale(10,10)"><text
               transform="matrix(1,0,0,-1,41.5,198.583)"
               id="text166"><tspan
                 style="font-size:10px;font-variant:normal;font-weight:normal;writing-mode:lr-tb;fill:#000000;fill-opacity:1;fill-rule:nonzero;stroke:none;font-family:Helvetica;-inkscape-font-specification:Helvetica"
                 x="0 5.5599999 8.3400002"
                 y="0"
                 sodipodi:role="line"
                 id="tspan168">2.5</tspan></text>
</g><path
             d="m 582.5,2570 34.168,0"
             style="fill:none;stroke:#000000;stroke-width:5;stroke-linecap:butt;stroke-linejoin:round;stroke-miterlimit:10;stroke-opacity:1;stroke-dasharray:none"
             id="path170"
             inkscape:connector-curvature="0" /><path
             d="m 4054.17,2570 -35,0"
             style="fill:none;stroke:#000000;stroke-width:5;stroke-linecap:butt;stroke-linejoin:round;stroke-miterlimit:10;stroke-opacity:1;stroke-dasharray:none"
             id="path172"
             inkscape:connector-curvature="0" /><g
             id="g174"
             transform="scale(10,10)"><text
               transform="matrix(1,0,0,-1,49.8332,253.333)"
               id="text176"><tspan
                 style="font-size:10px;font-variant:normal;font-weight:normal;writing-mode:lr-tb;fill:#000000;fill-opacity:1;fill-rule:nonzero;stroke:none;font-family:Helvetica;-inkscape-font-specification:Helvetica"
                 x="0"
                 y="0"
                 id="tspan178">3</tspan></text>
</g><path
             d="m 582.5,3117.5 34.168,0"
             style="fill:none;stroke:#000000;stroke-width:5;stroke-linecap:butt;stroke-linejoin:round;stroke-miterlimit:10;stroke-opacity:1;stroke-dasharray:none"
             id="path180"
             inkscape:connector-curvature="0" /><path
             d="m 4054.17,3117.5 -35,0"
             style="fill:none;stroke:#000000;stroke-width:5;stroke-linecap:butt;stroke-linejoin:round;stroke-miterlimit:10;stroke-opacity:1;stroke-dasharray:none"
             id="path182"
             inkscape:connector-curvature="0" /><g
             id="g184"
             transform="scale(10,10)"><text
               transform="matrix(1,0,0,-1,41.5,308.083)"
               id="text186"><tspan
                 style="font-size:10px;font-variant:normal;font-weight:normal;writing-mode:lr-tb;fill:#000000;fill-opacity:1;fill-rule:nonzero;stroke:none;font-family:Helvetica;-inkscape-font-specification:Helvetica"
                 x="0 5.5599999 8.3400002"
                 y="0"
                 sodipodi:role="line"
                 id="tspan188">3.5</tspan></text>
</g><path
             d="m 582.5,378.332 3471.67,0"
             style="fill:none;stroke:#000000;stroke-width:5;stroke-linecap:butt;stroke-linejoin:round;stroke-miterlimit:10;stroke-opacity:1;stroke-dasharray:none"
             id="path190"
             inkscape:connector-curvature="0" /><path
             d="m 582.5,3118.33 3471.67,0"
             style="fill:none;stroke:#000000;stroke-width:5;stroke-linecap:butt;stroke-linejoin:round;stroke-miterlimit:10;stroke-opacity:1;stroke-dasharray:none"
             id="path192"
             inkscape:connector-curvature="0" /><path
             d="m 582.5,378.332 0,2739.998"
             style="fill:none;stroke:#000000;stroke-width:5;stroke-linecap:butt;stroke-linejoin:round;stroke-miterlimit:10;stroke-opacity:1;stroke-dasharray:none"
             id="path194"
             inkscape:connector-curvature="0" /><path
             d="m 4054.17,378.332 0,2739.998"
             style="fill:none;stroke:#000000;stroke-width:5;stroke-linecap:butt;stroke-linejoin:round;stroke-miterlimit:10;stroke-opacity:1;stroke-dasharray:none"
             id="path196"
             inkscape:connector-curvature="0" /><path
             d="m 1286.67,1803.33 c 0,-5.52 -4.48,-10 -10,-10 -5.52,0 -10,4.48 -10,10 0,5.52 4.48,10 10,10 5.52,0 10,-4.48 10,-10"
             style="fill:#000000;fill-opacity:1;fill-rule:nonzero;stroke:none"
             id="path198"
             inkscape:connector-curvature="0" /><path
             d="m 592.5,488.332 c 0,-5.52 -4.48,-10 -10,-10 -5.52,0 -10,4.48 -10,10 0,5.52 4.48,10 10,10 5.52,0 10,-4.48 10,-10"
             style="fill:#000000;fill-opacity:1;fill-rule:nonzero;stroke:none"
             id="path200"
             inkscape:connector-curvature="0" /><path
             d="m 3022.5,2241.67 c 0,-5.52 -4.48,-10 -10,-10 -5.52,0 -10,4.48 -10,10 0,5.52 4.48,10 10,10 5.52,0 10,-4.48 10,-10"
             style="fill:#000000;fill-opacity:1;fill-rule:nonzero;stroke:none"
             id="path202"
             inkscape:connector-curvature="0" /><path
             d="m 3195.83,2460.83 c 0,-5.52 -4.48,-10 -10,-10 -5.52,0 -10,4.48 -10,10 0,5.52 4.48,10 10,10 5.52,0 10,-4.48 10,-10"
             style="fill:#000000;fill-opacity:1;fill-rule:nonzero;stroke:none"
             id="path204"
             inkscape:connector-curvature="0" /><path
             d="m 1894.17,1584.17 c 0,-5.52 -4.48,-10 -10,-10 -5.52,0 -10,4.48 -10,10 0,5.52 4.48,10 10,10 5.52,0 10,-4.48 10,-10"
             style="fill:#000000;fill-opacity:1;fill-rule:nonzero;stroke:none"
             id="path206"
             inkscape:connector-curvature="0" /><path
             d="m 3716.67,2899.17 c 0,-5.52 -4.48,-10 -10,-10 -5.52,0 -10,4.48 -10,10 0,5.52 4.48,10 10,10 5.52,0 10,-4.48 10,-10"
             style="fill:#000000;fill-opacity:1;fill-rule:nonzero;stroke:none"
             id="path208"
             inkscape:connector-curvature="0" /><g
             id="g210"
             transform="scale(10,10)" /></g></g><g
         id="g212"><g
           id="g214"
           clip-path="url(#clipPath216)"><path
             d="m 4054.17,3061.67 -11.67,-7.5 -11.67,-7.5 -11.66,-7.5 -11.67,-7.5 -11.67,-7.5 -11.66,-7.5 -11.67,-7.5 -11.67,-7.5 -11.66,-7.5 -11.67,-7.5 -11.67,-7.5 -11.66,-7.5 -11.67,-7.5 -11.67,-7.5 -10.83,-7.5 -11.67,-7.5 -11.66,-7.5 -11.67,-7.5 -11.67,-7.5 -11.66,-7.5 -11.67,-7.5 -11.67,-7.5 -11.66,-7.5 -11.67,-7.5 -11.67,-7.5 -11.66,-7.5 -11.67,-7.5 -11.67,-7.5 -11.66,-7.5 -10.84,-7.5 -11.66,-7.5 -11.67,-7.5 -11.67,-7.5 -11.66,-7.5 -11.67,-7.5 -11.67,-7.5 -11.66,-7.5 -11.67,-7.5 -11.67,-7.5 -11.66,-7.5 -11.67,-7.5 -11.67,-7.5 -11.66,-7.5 -11.67,-7.5 -10.83,-7.5 -11.67,-7.5 -11.67,-7.5 -11.66,-7.5 -11.67,-7.5 -11.67,-7.5 -11.66,-7.5 -11.67,-7.5 -11.67,-7.5 -11.66,-7.5 -11.67,-7.5 -11.67,-7.5 -11.66,-7.5 -11.67,-7.5 -11.67,-7.5 -10.83,-7.5 -11.67,-7.5 -11.66,-7.5 -11.67,-7.5 -11.67,-7.5 -11.66,-7.5 -11.67,-7.5 -11.67,-7.5 -11.66,-7.5 -11.67,-7.5 -11.67,-7.5 -11.66,-7.5 -11.67,-7.5 -11.67,-7.5 -11.66,-7.5 -10.84,-7.5 -11.66,-7.5 -11.67,-7.5 -11.67,-7.5 -11.66,-7.5 -11.67,-7.5 -11.67,-7.5 -11.66,-7.5 -11.67,-7.5 -11.67,-7.5 -11.66,-7.5 -11.67,-7.5 -11.67,-7.5 -11.66,-7.5 -11.67,-7.5 -10.83,-7.5 -11.67,-7.5 -11.67,-7.5 -11.66,-7.5 -11.67,-7.5 -11.67,-7.5 -11.66,-7.5 -11.67,-7.5 -11.67,-7.5 -11.66,-7.5 -11.67,-7.5 -11.67,-7.5 -11.66,-7.5 -11.67,-7.5 -11.67,-7.5 -10.83,-7.5 -11.67,-7.5 -11.66,-7.5 -11.67,-7.5 -11.67,-7.5 -11.66,-7.5 -11.67,-7.5 -11.67,-7.5 -11.66,-7.5 -11.67,-7.5 -11.67,-7.5 -11.66,-7.5 -11.67,-7.5 -11.67,-7.5 -11.66,-7.5 -10.84,-7.5 -11.66,-7.5 -11.67,-7.5 -11.67,-7.5 -11.66,-7.5 -11.67,-7.5 -11.67,-7.5 -11.66,-7.5 -11.67,-7.5 -11.67,-7.5 -11.66,-7.5 -11.67,-7.5 -11.67,-7.5 -11.66,-7.5 -11.67,-7.5 -10.83,-7.5 -11.67,-7.5 -11.67,-7.5 -11.66,-7.5 -11.67,-7.5 -11.67,-7.5 -11.66,-7.5 -11.67,-7.5 -11.67,-7.5 -11.66,-7.5 -11.67,-7.5 -11.67,-7.5 -11.66,-7.5 -11.67,-7.5 -11.67,-7.5 -10.83,-7.5 -11.67,-7.5 -11.66,-7.5 -11.67,-7.5 -11.67,-7.5 -11.66,-7.5 -11.67,-7.5 -11.67,-7.5 -11.66,-7.5 -11.67,-7.5 -11.67,-7.5 -11.66,-7.5 -11.67,-7.5 -11.67,-7.5 -11.66,-7.5 -10.84,-7.5 -11.66,-7.5 -11.67,-7.5 -11.67,-7.5 -11.66,-7.5 -11.67,-7.5 -11.67,-7.5 -11.66,-7.5 -11.67,-7.5 -11.67,-7.5 -11.66,-7.5 -11.67,-7.5 -11.67,-7.5 -11.66,-7.5 -11.67,-7.5 -10.83,-7.5 -11.67,-7.5 -11.67,-6.67 -11.66,-7.5 -11.67,-7.5 -11.67,-7.5 -11.66,-7.5 -11.67,-7.5 -11.67,-7.5 -11.66,-7.5 -11.67,-7.5 -11.67,-7.5 -11.66,-7.5 -11.67,-7.5 -11.67,-7.5 -10.83,-7.5 -11.67,-7.5 -11.66,-7.5 -11.67,-7.5 -11.67,-7.5 -11.66,-7.5 -11.67,-7.5 -11.67,-7.5 -11.66,-7.5 -11.67,-7.5 -11.67,-7.5 -11.66,-7.5 -11.67,-7.5 -11.67,-7.5 -11.66,-7.5 -10.84,-7.5 -11.66,-7.5 -11.67,-7.5 -11.67,-7.5 -11.66,-7.5 -11.67,-7.5 -11.67,-7.5 -11.66,-7.5 -11.67,-7.5 -11.67,-7.5 -11.66,-7.5 -11.67,-7.5 -11.67,-7.5 -11.66,-7.5 -11.67,-7.5 -10.83,-7.5 -11.67,-7.5 -11.67,-7.5 -11.66,-7.5 -11.67,-7.5 -11.67,-7.5 -11.66,-7.5 -11.67,-7.5 -11.67,-7.5 -11.66,-7.5 -11.67,-7.5 -11.67,-7.5 -11.66,-7.5 -11.67,-7.5 -11.67,-7.5 -10.83,-7.5 -11.67,-7.5 -11.66,-7.5 -11.67,-7.5 -11.67,-7.5 -11.66,-7.5 -11.67,-7.5 -11.67,-7.5 -11.66,-7.5 -11.67,-7.5 -11.67,-7.5 -11.66,-7.5 -11.67,-7.5 -11.67,-7.5 -11.66,-7.5 -10.84,-7.5 -11.66,-7.5 -11.67,-7.5 -11.67,-7.5 -11.66,-7.5 -11.67,-7.5 -11.67,-7.5 -11.66,-7.5 L 1000,1090 988.332,1082.5 976.668,1075 965,1067.5 953.332,1060 941.668,1052.5 930,1045 919.168,1037.5 907.5,1030 895.832,1022.5 884.168,1015 872.5,1007.5 860.832,1000 849.168,992.5 837.5,985 825.832,977.5 814.168,970 802.5,962.5 790.832,955 779.168,947.5 767.5,940 755.832,932.5 745,925 733.332,917.5 721.668,910 710,902.5 698.332,895 686.668,887.5 675,880 663.332,872.5 651.668,865 640,857.5 628.332,850 616.668,842.5 605,835 593.332,827.5 582.5,820"
             style="fill:none;stroke:#ff0000;stroke-width:5;stroke-linecap:butt;stroke-linejoin:round;stroke-miterlimit:10;stroke-opacity:1;stroke-dasharray:none"
             id="path220"
             inkscape:connector-curvature="0" /></g></g><g
         id="g222"><g
           id="g224"
           clip-path="url(#clipPath226)" /></g></g><path
       style="fill:#44aa00;stroke:#44aa00;stroke-width:0.80000000999999998px;stroke-linecap:butt;stroke-linejoin:miter;stroke-opacity:1"
       d="m 58.3964,49.448563 c 0,32.965712 -0.235469,32.73024 -0.235469,32.73024"
       id="path3205"
       inkscape:connector-curvature="0" /><path
       style="fill:#44aa00;stroke:#44aa00;stroke-width:0.80000000999999998px;stroke-linecap:butt;stroke-linejoin:miter;stroke-opacity:1"
       d="m 370.5536,289.53793 c 0,-6.1222 0,-5.88673 0,-5.88673"
       id="path4017"
       inkscape:connector-curvature="0" /><path
       style="fill:#44aa00;stroke:#44aa00;stroke-width:1px;stroke-linecap:butt;stroke-linejoin:miter;stroke-opacity:1"
       d="m 159.23615,196.08243 c 0,66.22576 0,66.22576 0,66.22576"
       id="path4021"
       inkscape:connector-curvature="0"
       transform="matrix(0.8,0,0,-0.8,0,337)" /><path
       style="fill:#44aa00;stroke:#44aa00;stroke-width:1px;stroke-linecap:butt;stroke-linejoin:miter;stroke-opacity:1"
       d="m 235.46935,222.86707 0,-9.41877 0,0"
       id="path4023"
       inkscape:connector-curvature="0"
       transform="matrix(0.8,0,0,-0.8,0,337)" /><path
       style="fill:#44aa00;stroke:#44aa00;stroke-width:1px;stroke-linecap:butt;stroke-linejoin:miter;stroke-opacity:1"
       d="m 376.16229,140.74713 0,-18.24887 0,0"
       id="path4025"
       inkscape:connector-curvature="0"
       transform="matrix(0.8,0,0,-0.8,0,337)" /><path
       style="fill:#44aa00;stroke:#44aa00;stroke-width:1px;stroke-linecap:butt;stroke-linejoin:miter;stroke-opacity:1"
       d="m 398.23754,113.66816 0,-5.29806"
       id="path4027"
       inkscape:connector-curvature="0"
       transform="matrix(0.8,0,0,-0.8,0,337)" /></g></svg>